<?xml version="1.0" encoding="utf-8" standalone="yes"?>
<!DOCTYPE svg PUBLIC "-//W3C//DTD SVG 1.1//EN" "http://www.w3.org/Graphics/SVG/1.1/DTD/svg11.dtd">
<svg xmlns="http://www.w3.org/2000/svg" xmlns:xlink="http://www.w3.org/1999/xlink" xmlns:dc="http://purl.org/dc/elements/1.1/" xmlns:cc="http://web.resource.org/cc/" xmlns:rdf="http://www.w3.org/1999/02/22-rdf-syntax-ns#" xmlns:sodipodi="http://sodipodi.sourceforge.net/DTD/sodipodi-0.dtd" xmlns:inkscape="http://www.inkscape.org/namespaces/inkscape" height="360px" style="zoom: 1;" cursor="default" id="svg_document" width="480px" baseProfile="full" version="1.1" preserveAspectRatio="xMidYMid meet" viewBox="0 0 480 360"><!-- Created with macSVG - https://macsvg.org/ - https://github.com/dsward2/macsvg/ --><title id="svg_document_title">Untitled.svg</title><defs id="svg_document_defs"><style id="Rowdies_Google_Webfont_import">@import url(https://fonts.googleapis.com/css?family=Rowdies);</style></defs><g id="main_group"><rect x="-152px" height="661px" y="-154px" id="background_rect" width="846px" fill="#C8C8C8"></rect><rect stroke="#6B7280" height="280px" x="40px" y="39px" id="rect1" stroke-width="3px" width="400px" fill="#6B7280" transform=""></rect><g id="textToPathGroup"><path stroke="none" stroke-width="1" id="textToPath-0" d="M98,261.200012 C93.799988,261.200012 89.799988,261 86,260.5 C82.299988,260.100006 78.899994,259.600006 75.799988,259 L47.200012,245.799988 L60.399994,212.399994 L101.100006,226.399994 C110.200012,226.399994 116.700012,223.700012 120.700012,218.200012 C124.600006,212.700012 126.600006,204.399994 126.600006,193.200012 L126.600006,138.399994 L121.799988,116.399994 L124.200012,103.199997 L165.799988,103.199997 L166,200.299988 C166,219.899994 160.099976,235 148.399994,245.5 C136.700012,256 119.899994,261.200012 98,261.200012 M227.599976,259 L192.400024,138.199997 L185.799988,116.399994 L185.799988,103.199997 L227.599976,103.199997 L255.099976,216.799988 L259.5,216.799988 L280.400024,103.199997 L338.299988,103.199997 L355.400024,188.799988 L358.900024,216.799988 L363.299988,216.799988 L390.599976,103.199997 L432,103.199997 L432,116.399994 L425.400024,138.199997 L390.599976,259 L333.599976,259 L311,144.199997 L306.400024,144.199997 L302.599976,170.799988 L284.599976,259 " fill="#C8C8C8" transform=""></path></g></g><g id="textToPathGroup"></g></svg>